<svg width="95" height="77.19" viewBox="0 0 48 39" fill="none" xmlns="http://www.w3.org/2000/svg">
<path d="M14.8994 6.73652C16.4837 4.37055 19.9626 4.37055 21.5469 6.73651L23.1003 9.0565C23.9885 10.3829 25.5803 11.0543 27.1501 10.7645L28.074 10.594C31.4043 9.97929 33.9439 13.5229 32.2917 16.4791L29.0774 22.23C28.6895 22.9241 28.5172 23.7179 28.5825 24.5103L28.9442 28.8962C29.1908 31.8855 26.1814 34.0726 23.4142 32.9151L19.7667 31.3894C18.7791 30.9764 17.6672 30.9764 16.6796 31.3894L13.0321 32.9152C10.265 34.0726 7.25556 31.8855 7.50209 28.8962L7.86379 24.5106C7.92915 23.718 7.7568 22.924 7.36876 22.2299L4.15393 16.4794C2.50131 13.5232 5.04083 9.97927 8.37129 10.5939L9.29634 10.7646C10.8661 11.0543 12.4578 10.3829 13.346 9.05655L14.8994 6.73652Z" fill="#F44259"/>
<path d="M26.455 6.73652C28.0392 4.37055 31.5182 4.37055 33.1024 6.73651L34.6559 9.0565C35.544 10.3829 37.1358 11.0543 38.7056 10.7645L39.6295 10.594C42.9598 9.97929 45.4994 13.5229 43.8472 16.4791L40.6329 22.23C40.245 22.9241 40.0727 23.7179 40.1381 24.5103L40.4998 28.8962C40.7463 31.8855 37.7369 34.0726 34.9698 32.9151L31.3223 31.3894C30.3347 30.9764 29.2227 30.9764 28.2351 31.3894L24.5877 32.9152C21.8205 34.0726 18.8111 31.8855 19.0576 28.8962L19.4193 24.5106C19.4847 23.718 19.3123 22.924 18.9243 22.2299L15.7095 16.4794C14.0569 13.5232 16.5964 9.97927 19.9268 10.5939L20.8519 10.7646C22.4217 11.0543 24.0134 10.3829 24.9015 9.05655L26.455 6.73652Z" fill="#B2F442"/>
<path d="M20.6887 4.89251C22.2752 2.54914 25.7268 2.54913 27.3133 4.8925L29.9609 8.80313C30.8501 10.1165 32.4313 10.7804 33.9915 10.4956L36.9298 9.95923C40.2664 9.35013 42.7992 12.9093 41.1306 15.8622L36.6179 23.8476C36.2229 24.5465 36.0474 25.348 36.1141 26.148L36.6408 32.4643C36.8896 35.4481 33.8923 37.6375 31.1255 36.4928L25.5302 34.178C24.551 33.773 23.4511 33.773 22.4719 34.178L16.8766 36.4928C14.1098 37.6375 11.1125 35.4481 11.3613 32.4643L11.888 26.1482C11.9547 25.3481 11.7791 24.5464 11.384 23.8475L6.87052 15.8624C5.20147 12.9097 7.73422 9.35011 11.071 9.95914L14.0107 10.4957C15.5709 10.7805 17.152 10.1165 18.0412 8.80318L20.6887 4.89251Z" fill="#4285F4"/>
</svg>
